<svg width="52" height="52" viewBox="0 0 52 52" fill="none" xmlns="http://www.w3.org/2000/svg">
<path d="M10.6609 7.0304C10.2738 7.13071 10 7.4654 10 8.04102C10 9.7304 10 25.6613 10 25.6613C10 25.6613 10 42.8776 10 43.6379C10 44.056 10.1847 44.3363 10.4688 44.4404L29.3884 25.6304L10.6609 7.0304Z" fill="#4DB6AC"/>
<path d="M34.5954 20.4552L26.8076 15.9589C26.8076 15.9589 12.5154 7.70612 11.6754 7.22143C11.3117 7.01143 10.9536 6.95612 10.6592 7.033L29.3876 25.633L34.5954 20.4552Z" fill="#DCE775"/>
<path d="M11.3283 44.3038C11.8271 44.0151 25.6571 36.0304 34.6393 30.8441L29.3883 25.6298L10.4686 44.4398C10.7011 44.5251 10.9993 44.4932 11.3283 44.3038Z" fill="#D32F2F"/>
<path d="M42.2482 24.8681C41.502 24.4659 34.6545 20.4844 34.6545 20.4844L34.5973 20.4515L29.3885 25.6293L34.6395 30.8437C38.7945 28.4447 41.9154 26.6437 42.1948 26.4815C43.0798 25.9715 42.9945 25.2703 42.2482 24.8681Z" fill="#FBC02D"/>
</svg>
