<svg width="194" height="60" viewBox="0 0 194 60" fill="none" xmlns="http://www.w3.org/2000/svg">
<path d="M87.7596 7.62263C86.2209 7.1408 84.6497 7.57486 83.095 7.82456C81.1087 8.14075 79.1233 8.46208 77.137 8.77828C76.2311 6.00621 75.0217 3.32662 73.5269 0.829733C73.126 0.156817 71.9017 0.0958484 71.6895 0.981389C71.0255 3.76017 70.5343 6.55984 70.2021 9.39347C67.4465 9.74903 64.6945 10.1253 61.9453 10.5492C61.0664 10.6849 60.7875 11.8062 61.3512 12.4109C61.5589 12.634 61.8255 12.7936 62.0868 12.954C63.7103 13.9418 65.1721 15.1443 66.7644 16.1695C67.4294 16.5993 68.1056 17.0004 68.7892 17.3976C68.1408 20.8571 67.5341 24.3094 67.3636 27.8306C67.3225 28.6812 68.3966 29.2245 69.0382 28.6172C71.6446 26.1385 74.0918 23.5164 76.4024 20.771C79.2569 22.558 82.2581 24.0287 85.4452 25.1603C86.1319 25.4048 86.9415 24.7285 86.7331 24.0037C85.7584 20.6001 84.4345 17.3664 82.738 14.277C84.6115 12.7015 86.4063 11.0436 88.1206 9.2928C88.6361 8.77936 88.5067 7.85937 87.7596 7.62263Z" fill="#212121"/>
<path d="M62.6699 25.7419C61.375 25.9361 60.2291 26.713 59.1868 27.4533C58.0683 28.2495 56.9335 28.9977 55.7853 29.7457C53.2795 31.3817 50.8083 33.0785 48.5034 34.992C46.3257 36.8035 44.3551 38.8194 42.2531 40.7112C39.9351 42.7977 37.5435 44.5821 35.5855 47.044C35.5393 47.1027 35.5178 47.1651 35.509 47.2227C35.2555 47.4639 35.4732 47.9946 35.8833 47.8677C36.247 47.7356 36.6178 47.6448 36.9983 47.5791C35.8903 49.462 35.0227 51.4315 34.3953 53.5329C34.2798 53.921 34.7916 54.1341 35.0516 53.8838C40.7779 48.3938 46.4396 42.8403 52.078 37.2615C53.9508 35.4093 55.8003 33.5317 57.663 31.6679C58.8621 30.4683 60.204 29.3187 61.4335 28.1085C61.9496 27.6005 62.5551 27.0824 62.922 26.4561C63.1996 25.9812 63.0699 25.6808 62.6699 25.7419Z" fill="#212121"/>
<path d="M61.5694 20.5808C60.9877 20.4144 60.2617 20.5158 59.673 20.5268C58.6139 20.5495 57.5634 20.7149 56.5327 20.9489C54.4393 21.4172 52.4272 22.1703 50.3832 22.8008C46.2219 24.0878 42.1476 25.6453 38.1819 27.443C34.1341 29.2788 30.2011 31.359 26.403 33.6613C22.9184 35.7735 18.7316 37.9856 16.0554 41.111C15.8635 41.3362 15.9927 41.8049 16.3469 41.7571C16.7032 41.7063 17.0555 41.6481 17.4048 41.5878C13.2008 44.4619 9.8137 48.6467 7.04745 52.8204C6.85797 53.1066 7.19797 53.4589 7.49623 53.3673C9.00408 52.9122 10.2314 51.8276 11.5163 50.9519C13.2624 49.7617 15.0706 48.6836 16.9122 47.6424C19.2038 46.3474 21.4656 45.0041 23.6976 43.6126C23.3858 44.3096 23.1149 45.0262 22.8868 45.7727C22.7794 46.1302 23.1925 46.315 23.4658 46.1878C32.0174 42.1572 38.9182 35.4069 46.97 30.5339C49.9838 28.7112 53.0573 26.985 56.1514 25.3005C57.5009 24.5658 58.9466 23.8438 60.3028 23.0545C60.9904 22.6529 63.561 21.3257 61.7136 20.6227C61.6631 20.61 61.6147 20.5944 61.5694 20.5808Z" fill="#212121"/>
<path d="M59.3481 16.0678C58.7423 15.6386 57.9476 15.6236 57.236 15.5303C56.3673 15.4134 55.4931 15.3108 54.6193 15.2268C49.8819 14.7716 45.1334 14.8735 40.4089 15.4571C39.8225 15.529 39.2349 15.6092 38.6481 15.6945C35.0242 16.2295 31.4363 17.0038 27.8922 17.9228C24.6282 18.7694 21.0614 19.4947 18.0949 21.1468C17.8008 21.3097 17.8695 21.7542 18.1836 21.8468C18.6758 21.9914 19.1416 22.0764 19.6033 22.1222C16.3544 23.7402 13.61 26.0719 11.4783 29.0746C11.4005 29.1841 11.3945 29.2892 11.4315 29.3789C11.3988 29.6248 11.5854 29.8969 11.8911 29.8014C17.0929 28.2038 22.2286 26.4094 27.3004 24.4472C26.793 24.9299 26.3097 25.4431 25.8513 25.992C25.6152 26.273 25.8258 26.7305 26.2198 26.6331C34.0059 24.7467 41.734 22.6328 49.3935 20.2932C51.2327 19.7327 53.0671 19.1597 54.8988 18.5711C56.3462 18.105 57.8758 18.0063 59.2094 17.2235C59.9445 16.8003 59.7767 16.3728 59.3481 16.0678Z" fill="#212121"/>
<path d="M99.1028 25.5V7.16234H107.541C109.763 7.16234 111.507 7.72657 112.773 8.85504C114.141 10.069 114.824 11.6848 114.824 13.7023C114.824 15.4805 114.226 16.9595 113.029 18.1393C111.849 19.3191 110.345 19.9089 108.515 19.9089H104.463V25.5H99.1028ZM104.463 11.5993V15.7541H107.361C108.011 15.7541 108.524 15.5575 108.9 15.1642C109.293 14.771 109.49 14.258 109.49 13.6254C109.49 13.0099 109.293 12.5226 108.9 12.1635C108.524 11.7874 107.994 11.5993 107.31 11.5993H104.463ZM113.05 25.5L119.821 7.16234H125.284L132.08 25.5H126.387L125.489 22.8071H119.282L118.385 25.5H113.05ZM121.693 15.5233L120.488 19.1139H124.284L123.13 15.5233L122.437 13.1638H122.386C122.129 14.1383 121.898 14.9249 121.693 15.5233ZM133.09 25.5V7.16234H142.195C144.195 7.16234 145.845 7.63253 147.145 8.57293C148.461 9.49622 149.12 10.847 149.12 12.6252C149.12 14.694 148.119 16.1816 146.119 17.0878V17.1647C147.504 17.6947 148.359 18.7035 148.684 20.1911C148.82 20.7724 148.906 21.4991 148.94 22.3711C148.974 23.226 149.017 23.9013 149.068 24.3972C149.12 24.893 149.239 25.1666 149.427 25.2179V25.5H144.144C143.99 25.3974 143.888 25.1238 143.836 24.6793C143.785 24.2176 143.734 23.6363 143.682 22.9353C143.631 22.2343 143.554 21.67 143.452 21.2426C143.281 20.5074 143.007 19.9688 142.631 19.6268C142.255 19.2849 141.691 19.1139 140.938 19.1139H138.45V25.5H133.09ZM138.45 11.3685V15.2925H141.323C142.913 15.2925 143.708 14.6427 143.708 13.3433C143.708 12.7278 143.511 12.249 143.118 11.907C142.725 11.548 142.152 11.3685 141.4 11.3685H138.45ZM150.105 11.7275V7.16234H165.903V11.7275H160.646V25.5H155.285V11.7275H150.105ZM172.908 25.5V19.0626L166.625 7.16234H172.447L174.396 11.2402C174.601 11.6506 174.806 12.1037 175.011 12.5995C175.217 13.0954 175.37 13.4801 175.473 13.7536L175.627 14.1896H175.678C176.071 13.1467 176.49 12.1635 176.935 11.2402L178.884 7.16234H184.578L178.269 19.0626V25.5H172.908ZM111.896 49.5L111.776 47.196H111.728C110.672 48.972 109.064 49.86 106.904 49.86C104.392 49.86 102.384 49.028 100.88 47.364C99.392 45.7 98.648 43.572 98.648 40.98C98.648 38.036 99.584 35.7 101.456 33.972C102.896 32.66 104.736 32.004 106.976 32.004C109.072 32.004 110.744 32.524 111.992 33.564C113.256 34.604 114.032 35.996 114.32 37.74H110.912C110.704 36.876 110.272 36.188 109.616 35.676C108.96 35.148 108.104 34.884 107.048 34.884C105.496 34.884 104.296 35.452 103.448 36.588C102.616 37.724 102.2 39.188 102.2 40.98C102.2 42.756 102.632 44.212 103.496 45.348C104.376 46.484 105.544 47.052 107 47.052C108.28 47.052 109.336 46.66 110.168 45.876C111 45.076 111.416 44.172 111.416 43.164V43.068H107.288V40.38H114.512V49.5H111.896ZM115.697 49.5L121.673 32.34H125.273L131.321 49.5H127.697L126.545 45.852H120.353L119.225 49.5H115.697ZM122.705 38.244L121.169 43.188H125.705L124.169 38.244L123.473 35.604H123.425C123.137 36.756 122.897 37.636 122.705 38.244ZM132.765 49.5V32.34H137.661L140.085 40.956C140.261 41.596 140.437 42.308 140.613 43.092C140.805 43.86 140.949 44.468 141.045 44.916L141.165 45.588H141.213C141.517 43.94 141.869 42.396 142.269 40.956L144.693 32.34H149.661V49.5H146.421V39.66L146.565 36.108H146.517C146.261 37.452 146.013 38.54 145.773 39.372L142.821 49.5H139.485L136.605 39.372L135.861 36.108H135.813C135.909 37.548 135.957 38.732 135.957 39.66V49.5H132.765ZM152.312 49.5V32.34H164.936V35.268H155.792V39.108H163.808V41.964H155.792V46.596H165.008V49.5H152.312ZM173.702 49.884C171.382 49.884 169.582 49.396 168.302 48.42C167.022 47.428 166.35 46.02 166.286 44.196H169.694C169.806 45.22 170.166 45.956 170.774 46.404C171.398 46.852 172.326 47.076 173.558 47.076C174.534 47.076 175.334 46.9 175.958 46.548C176.582 46.18 176.894 45.62 176.894 44.868C176.894 44.596 176.854 44.356 176.774 44.148C176.71 43.924 176.566 43.732 176.342 43.572C176.118 43.396 175.926 43.26 175.766 43.164C175.606 43.052 175.31 42.94 174.878 42.828C174.446 42.7 174.118 42.612 173.894 42.564C173.67 42.5 173.254 42.396 172.646 42.252C171.91 42.076 171.302 41.924 170.822 41.796C170.358 41.668 169.838 41.468 169.262 41.196C168.702 40.924 168.254 40.628 167.918 40.308C167.598 39.972 167.326 39.54 167.102 39.012C166.878 38.468 166.766 37.852 166.766 37.164C166.766 35.516 167.366 34.252 168.566 33.372C169.782 32.476 171.374 32.028 173.342 32.028C175.294 32.028 176.854 32.492 178.022 33.42C179.19 34.348 179.838 35.668 179.966 37.38H176.63C176.534 36.548 176.182 35.908 175.574 35.46C174.982 35.012 174.23 34.788 173.318 34.788C172.374 34.788 171.622 34.972 171.062 35.34C170.502 35.708 170.222 36.196 170.222 36.804C170.222 37.46 170.494 37.94 171.038 38.244C171.598 38.548 172.574 38.852 173.966 39.156C174.798 39.332 175.478 39.5 176.006 39.66C176.534 39.804 177.102 40.02 177.71 40.308C178.334 40.58 178.814 40.884 179.15 41.22C179.502 41.556 179.79 42.004 180.014 42.564C180.254 43.108 180.374 43.74 180.374 44.46C180.374 46.156 179.758 47.484 178.526 48.444C177.294 49.404 175.686 49.884 173.702 49.884Z" fill="#212121"/>
</svg>
