<svg width="52" height="52" viewBox="0 0 52 52" fill="none" xmlns="http://www.w3.org/2000/svg">
<path d="M14.3333 6H37.6667C42.2692 6 46 9.73083 46 14.3333V37.6667C46 42.2692 42.2692 46 37.6667 46H14.3333C9.73083 46 6 42.2692 6 37.6667V14.3333C6 9.73083 9.73083 6 14.3333 6Z" fill="url(#paint0_linear_1_3090)"/>
<path d="M13.7893 36.1916C13.2059 37.175 13.5309 38.4583 14.5226 39.0416C14.8476 39.2416 15.2143 39.3333 15.5809 39.3333C16.2893 39.3333 16.9809 38.9666 17.3726 38.3083L19.2309 35.1666H14.3976L13.7893 36.1916Z" fill="white"/>
<path d="M23.1835 28.4993L24.6668 25.9993L26.0002 23.7493L28.4168 19.6743L30.7085 15.8076C31.2918 14.8243 30.9668 13.541 29.9752 12.9576C28.9918 12.3743 27.7085 12.6993 27.1252 13.6909L26.0002 15.591L24.8752 13.6909C24.7752 13.5159 24.6418 13.3576 24.5002 13.2159C23.8418 12.6159 22.8335 12.4826 22.0252 12.9576C21.0335 13.541 20.7085 14.8243 21.2918 15.8076L22.1252 17.2159L23.5835 19.6743L19.8335 25.9993L18.3502 28.4993H13.9168C12.7668 28.4993 11.8335 29.4326 11.8335 30.5826C11.8335 31.7326 12.7668 32.666 13.9168 32.666H15.8835H20.7168H28.3752L25.9002 28.4993H23.1835Z" fill="white"/>
<path d="M38.083 28.4994H33.6497L29.8747 22.1244L27.4497 26.2077L28.808 28.4994L31.283 32.6661L34.6247 38.3077C35.0164 38.9661 35.708 39.3327 36.4164 39.3327C36.783 39.3327 37.1497 39.2411 37.4747 39.0411C38.4664 38.4577 38.7914 37.1744 38.208 36.1911L36.1164 32.6661H38.083C38.3747 32.6661 38.658 32.6077 38.9164 32.4911C39.6497 32.1744 40.1664 31.4411 40.1664 30.5827C40.1664 29.4327 39.233 28.4994 38.083 28.4994Z" fill="white"/>
<defs>
<linearGradient id="paint0_linear_1_3090" x1="26" y1="55.8942" x2="26" y2="-5.29333" gradientUnits="userSpaceOnUse">
<stop stop-color="#005CE2"/>
<stop offset="0.278" stop-color="#0080E8"/>
<stop offset="0.569" stop-color="#009CED"/>
<stop offset="0.82" stop-color="#00B0F1"/>
<stop offset="1" stop-color="#00B5F2"/>
</linearGradient>
</defs>
</svg>
