<svg width="264" height="264" viewBox="0 0 264 264" fill="none" xmlns="http://www.w3.org/2000/svg">
<g clip-path="url(#clip0_1_2993)">
<rect width="264" height="264" rx="40.2188" fill="url(#paint0_linear_1_2993)"/>
<g filter="url(#filter0_f_1_2993)">
<circle opacity="0.65" cx="115.017" cy="50.0479" r="1.06348" fill="white"/>
<circle opacity="0.65" cx="230.445" cy="92.2671" r="1.06348" transform="rotate(150 230.445 92.2671)" fill="white"/>
<circle opacity="0.65" cx="47.6948" cy="151.274" r="1.06348" transform="rotate(-150 47.6948 151.274)" fill="white"/>
<circle opacity="0.65" r="1.06348" transform="matrix(-1 0 0 1 142.281 114.501)" fill="white"/>
<circle opacity="0.65" cx="98.0332" cy="154.303" r="1.06348" transform="rotate(165 98.0332 154.303)" fill="white"/>
<circle opacity="0.65" r="1.06348" transform="matrix(0.866025 -0.5 -0.5 -0.866025 174.608 50.0811)" fill="white"/>
<circle opacity="0.65" r="1.06348" transform="matrix(-1 0 0 1 61.0696 31.7432)" fill="white"/>
<circle opacity="0.65" r="1.06348" transform="matrix(0.866025 0.5 0.5 -0.866025 56.3106 81.8238)" fill="white"/>
<circle opacity="0.65" cx="96.8411" cy="43.2158" r="0.676758" fill="white"/>
<circle opacity="0.65" cx="249.602" cy="89.0958" r="0.676758" transform="rotate(150 249.602 89.0958)" fill="white"/>
<circle opacity="0.65" cx="60.02" cy="166.278" r="0.676758" transform="rotate(-150 60.02 166.278)" fill="white"/>
<circle opacity="0.65" r="0.676758" transform="matrix(-1 0 0 1 160.456 107.669)" fill="white"/>
<circle opacity="0.65" cx="117.358" cy="156.197" r="0.676758" transform="rotate(165 117.358 156.197)" fill="white"/>
<circle opacity="0.65" r="0.676758" transform="matrix(0.866025 -0.5 -0.5 -0.866025 162.283 65.0855)" fill="white"/>
<circle opacity="0.65" r="0.676758" transform="matrix(-1 0 0 1 79.2454 24.9111)" fill="white"/>
<circle opacity="0.65" r="0.676758" transform="matrix(0.866025 0.5 0.5 -0.866025 37.154 78.6524)" fill="white"/>
<circle opacity="0.65" cx="162.197" cy="64.7432" r="1.06348" fill="white"/>
<circle opacity="0.65" cx="143.118" cy="10.3447" r="1.06348" fill="white"/>
<circle opacity="0.65" cx="182.239" cy="103.131" r="1.06348" transform="rotate(150 182.239 103.131)" fill="white"/>
<circle opacity="0.65" r="1.06348" transform="matrix(-0.965926 -0.258819 -0.258819 0.965926 139.573 154.944)" fill="white"/>
<circle opacity="0.65" cx="14.184" cy="114.957" r="1.06348" transform="rotate(-150 14.184 114.957)" fill="white"/>
<circle opacity="0.65" r="1.06348" transform="matrix(-1 0 0 1 95.1008 129.196)" fill="white"/>
<circle opacity="0.65" r="1.06348" transform="matrix(0.866025 -0.5 -0.5 -0.866025 208.119 13.7648)" fill="white"/>
<circle opacity="0.65" r="1.06348" transform="matrix(-1 0 0 1 13.8899 46.4385)" fill="white"/>
<circle opacity="0.65" r="1.06348" transform="matrix(0.866025 0.5 0.5 -0.866025 104.517 92.6872)" fill="white"/>
<circle opacity="0.65" r="1.06348" transform="matrix(-1 6.79865e-09 6.79865e-09 1 218.219 50.0907)" fill="white"/>
<circle opacity="0.65" r="1.06348" transform="matrix(-1 6.79865e-09 6.79865e-09 1 99.4836 10.0869)" fill="white"/>
<circle opacity="0.65" r="1.06348" transform="matrix(0.866025 0.5 0.5 -0.866025 23.3064 9.92934)" fill="white"/>
<circle opacity="0.65" cx="145.568" cy="43.9893" r="0.676758" fill="white"/>
<circle opacity="0.65" cx="207.017" cy="112.79" r="0.676758" transform="rotate(150 207.017 112.79)" fill="white"/>
<circle opacity="0.65" r="0.676758" transform="matrix(-0.965926 -0.258819 -0.258819 0.965926 161.006 139.201)" fill="white"/>
<circle opacity="0.65" cx="18.2077" cy="141.245" r="0.676758" transform="rotate(-150 18.2077 141.245)" fill="white"/>
<circle opacity="0.65" r="0.676758" transform="matrix(-1 0 0 1 111.73 108.442)" fill="white"/>
<circle opacity="0.65" r="0.676758" transform="matrix(0.866025 -0.5 -0.5 -0.866025 204.095 40.0527)" fill="white"/>
<circle opacity="0.65" r="0.676758" transform="matrix(-1 0 0 1 30.5188 25.6846)" fill="white"/>
<circle opacity="0.65" r="0.676758" transform="matrix(0.866025 0.5 0.5 -0.866025 79.7392 102.346)" fill="white"/>
<circle opacity="0.65" r="0.676758" transform="matrix(-1 6.79865e-09 6.79865e-09 1 234.847 29.3368)" fill="white"/>
<circle opacity="0.65" cx="126.49" cy="78.5361" r="1.4502" fill="white"/>
<circle opacity="0.65" cx="206.266" cy="73.332" r="1.4502" transform="rotate(150 206.266 73.332)" fill="white"/>
<circle opacity="0.65" cx="52.0039" cy="120.866" r="1.4502" transform="rotate(-150 52.0039 120.866)" fill="white"/>
<circle opacity="0.65" r="1.4502" transform="matrix(-1 0 0 1 130.808 142.989)" fill="white"/>
<circle opacity="0.65" cx="79.5781" cy="129.755" r="1.4502" transform="rotate(165 79.5781 129.755)" fill="white"/>
<circle opacity="0.65" r="1.4502" transform="matrix(0.866025 -0.5 -0.5 -0.866025 170.299 19.6733)" fill="white"/>
<circle opacity="0.65" r="1.4502" transform="matrix(-1 0 0 1 49.5969 60.2314)" fill="white"/>
<circle opacity="0.65" r="1.4502" transform="matrix(0.866025 0.5 0.5 -0.866025 80.4903 62.8885)" fill="white"/>
<circle opacity="0.65" r="1.4502" transform="matrix(-1 6.79865e-09 6.79865e-09 1 253.926 63.8837)" fill="white"/>
<circle opacity="0.65" cx="133.579" cy="58.2979" r="1.06348" fill="white"/>
<circle opacity="0.65" cx="210.245" cy="94.4037" r="1.06348" transform="rotate(150 210.245 94.4037)" fill="white"/>
<circle opacity="0.65" cx="35.7443" cy="134.848" r="1.06348" transform="rotate(-150 35.7443 134.848)" fill="white"/>
<circle opacity="0.65" r="1.06348" transform="matrix(-1 0 0 1 123.718 122.751)" fill="white"/>
<circle opacity="0.65" cx="77.968" cy="151.138" r="1.06348" transform="rotate(165 77.968 151.138)" fill="white"/>
<circle opacity="0.65" r="1.06348" transform="matrix(0.866025 -0.5 -0.5 -0.866025 186.558 33.6551)" fill="white"/>
<circle opacity="0.65" r="1.06348" transform="matrix(-1 0 0 1 42.5071 39.9932)" fill="white"/>
<circle opacity="0.65" r="1.06348" transform="matrix(0.866025 0.5 0.5 -0.866025 76.5107 83.9602)" fill="white"/>
<circle opacity="0.65" r="1.06348" transform="matrix(0.866025 0.5 0.5 -0.866025 15.117 76.8322)" fill="white"/>
<circle opacity="0.65" r="1.06348" transform="matrix(-1 6.79865e-09 6.79865e-09 1 246.836 43.6454)" fill="white"/>
<circle opacity="0.65" cx="133.193" cy="26.458" r="0.676758" fill="white"/>
<circle opacity="0.65" cx="226.5" cy="121.785" r="0.676758" transform="rotate(150 226.5 121.785)" fill="white"/>
<circle opacity="0.65" r="0.676758" transform="matrix(-0.965926 -0.258819 -0.258819 0.965926 177.497 125.469)" fill="white"/>
<circle opacity="0.65" cx="20.1593" cy="162.615" r="0.676758" transform="rotate(-150 20.1593 162.615)" fill="white"/>
<circle opacity="0.65" r="0.676758" transform="matrix(-1 0 0 1 124.105 90.9111)" fill="white"/>
<circle opacity="0.65" r="0.676758" transform="matrix(0.866025 -0.5 -0.5 -0.866025 202.143 61.4225)" fill="white"/>
<circle opacity="0.65" r="0.676758" transform="matrix(-1 0 0 1 42.8938 8.15332)" fill="white"/>
<circle opacity="0.65" r="0.676758" transform="matrix(0.866025 0.5 0.5 -0.866025 60.2559 111.341)" fill="white"/>
<circle opacity="0.65" cx="111.021" cy="22.5908" r="0.676758" fill="white"/>
<circle opacity="0.65" cx="247.635" cy="114.048" r="0.676758" transform="rotate(150 247.635 114.048)" fill="white"/>
<circle opacity="0.65" r="0.676758" transform="matrix(-0.965926 -0.258819 -0.258819 0.965926 199.915 127.472)" fill="white"/>
<circle opacity="0.65" cx="37.427" cy="177.05" r="0.676758" transform="rotate(-150 37.427 177.05)" fill="white"/>
<circle opacity="0.65" r="0.676758" transform="matrix(-1 0 0 1 146.277 87.0439)" fill="white"/>
<circle opacity="0.65" r="0.676758" transform="matrix(0.866025 -0.5 -0.5 -0.866025 184.876 75.8573)" fill="white"/>
<circle opacity="0.65" r="0.676758" transform="matrix(-1 0 0 1 65.0657 4.28613)" fill="white"/>
<circle opacity="0.65" r="0.676758" transform="matrix(0.866025 0.5 0.5 -0.866025 39.121 103.604)" fill="white"/>
</g>
<g filter="url(#filter1_f_1_2993)">
<path d="M-23.2623 96.2046C-22.3318 67.5025 -53.5722 65.5252 -69.3088 68.1243C-74.9109 80.6987 -85.9615 106.675 -85.3475 109.986C-84.5799 114.124 -48.1189 153.848 -42.4989 157.974C-36.8789 162.099 20.9571 185.936 35.8111 190.702C50.6651 195.468 160.484 223.324 167.202 222.933C172.576 222.62 194.833 200.32 205.29 189.209L247.356 120.028C207.149 87.5969 188.151 125.568 189.087 128.834C161.072 113.888 147.49 133.661 144.202 145.415C131.912 119.589 109.373 134.873 108.546 134.622C95.3793 113.917 81.2301 128.624 79.1944 130.586C68.4693 93.938 40.5179 107.969 26.829 111.368C19.9593 78.4457 -10.2663 88.4211 -23.2623 96.2046Z" fill="url(#paint1_linear_1_2993)"/>
</g>
<g filter="url(#filter2_f_1_2993)">
<path d="M-16.5207 129.141C-10.9459 100.97 -41.4517 93.9509 -57.4014 93.9625C-64.9693 105.461 -80.0879 129.301 -80.0191 132.667C-79.933 136.875 -50.3998 181.988 -45.5236 186.971C-40.6474 191.954 12.5551 224.858 26.4391 231.971C40.3232 239.083 144.168 284.387 150.861 285.091C156.214 285.654 181.794 267.26 193.915 257.993L246.647 196.554C212.235 158.029 187.328 192.415 187.722 195.789C162.502 176.497 145.893 193.804 140.741 204.869C132.804 177.391 108.084 188.815 107.308 188.434C97.6755 165.867 81.3278 178.084 79.0007 179.689C74.3634 141.787 44.506 151.097 30.447 152.23C29.0095 118.63 -2.43404 123.569 -16.5207 129.141Z" fill="url(#paint2_linear_1_2993)"/>
</g>
<g filter="url(#filter3_f_1_2993)">
<path d="M52.0564 185.423C37.7046 160.55 10.1223 175.352 -1.87492 185.862C-0.000131379 199.499 4.3165 227.396 6.58469 229.885C9.41994 232.995 61.3513 247.506 68.3021 248.046C75.2528 248.585 138.915 249.623 154.048 245.835C169.181 242.047 277.169 207.774 282.67 203.898C287.071 200.797 294.213 170.11 297.234 155.155L267.767 83.5309C234.139 92.0076 249.099 110.133 251.618 112.413C219.934 114.497 218.828 138.459 222.235 150.18C198.17 134.723 187.086 159.598 186.251 159.822C164.142 149.179 159.882 169.138 159.187 171.878C130.742 146.403 112.445 161.769 102.609 171.878C79.4045 147.535 58.9903 171.955 52.0564 185.423Z" fill="url(#paint3_linear_1_2993)"/>
</g>
<g filter="url(#filter4_f_1_2993)">
<path d="M41.9323 213.1C34.5073 185.36 4.03388 192.518 -10.2747 199.565C-11.9935 213.223 -15.0442 241.287 -13.4974 244.278C-11.5638 248.016 -23.0905 276.891 -16.5163 279.211C-9.94204 281.532 110.253 286.172 125.85 286.43C141.448 286.688 254.628 281.532 260.944 279.211C265.997 277.355 280.839 249.563 287.628 235.899L277.702 159.089C243.026 158.573 252.785 179.953 254.628 182.807C223.484 176.62 216.214 199.479 216.471 211.682C197.227 190.524 180.082 211.682 179.217 211.682C160.617 195.68 151.336 213.856 149.956 216.323C129.073 184.354 106.385 205.881 94.2683 213.1C78.155 183.581 52.1159 201.885 41.9323 213.1Z" fill="url(#paint4_linear_1_2993)"/>
</g>
<g filter="url(#filter5_d_1_2993)">
<path d="M63.1237 98.3589V74.149H75.3662V122.294H65.8748L48.8867 98.0838V122.294H36.5754V74.149H46.1356L63.1237 98.3589Z" fill="white"/>
<path d="M91.9917 103.655V110.739H110.631V122.294H79.6805V74.149H110.287V85.635H91.9917V92.3064H108.567V103.655H91.9917Z" fill="white"/>
<path d="M139.592 122.294H124.942L109.398 74.149H122.878L132.232 107.3L141.655 74.149H155.135L139.592 122.294Z" fill="white"/>
<path d="M167.925 103.655V110.739H186.564V122.294H155.614V74.149H186.22V85.635H167.925V92.3064H184.501V103.655H167.925Z" fill="white"/>
<path d="M227.424 122.294H214.218L205.828 106.75H201.426V122.294H189.114V74.149H208.372C213.278 74.149 217.382 75.7309 220.684 78.8947C224.031 81.9668 225.704 85.933 225.704 90.7933C225.704 93.6361 224.971 96.2726 223.503 98.7028C222.036 101.133 220.042 103.059 217.52 104.48L227.424 122.294ZM208.235 85.4974H201.426V96.2955H208.235C209.748 96.3414 210.986 95.8599 211.949 94.8512C212.912 93.8425 213.393 92.5357 213.393 90.9309C213.393 89.326 212.912 88.0193 211.949 87.0105C210.986 86.0018 209.748 85.4974 208.235 85.4974Z" fill="white"/>
<path d="M70.4392 171.211V178.295H89.078V189.85H58.128V141.705H88.7341V153.191H70.4392V159.863H87.0147V171.211H70.4392Z" fill="white"/>
<path d="M118.039 189.85H103.389L87.8455 141.705H101.326L110.68 174.856L120.102 141.705H133.583L118.039 189.85Z" fill="white"/>
<path d="M146.373 171.211V178.295H165.012V189.85H134.062V141.705H164.668V153.191H146.373V159.863H162.948V171.211H146.373Z" fill="white"/>
<path d="M205.871 189.85H192.666L184.275 174.306H179.873V189.85H167.562V141.705H186.82C191.726 141.705 195.83 143.287 199.131 146.451C202.478 149.523 204.152 153.489 204.152 158.35C204.152 161.192 203.418 163.829 201.951 166.259C200.484 168.689 198.489 170.615 195.967 172.036L205.871 189.85ZM186.682 153.054H179.873V163.852H186.682C188.195 163.898 189.433 163.416 190.396 162.407C191.359 161.399 191.841 160.092 191.841 158.487C191.841 156.882 191.359 155.576 190.396 154.567C189.433 153.558 188.195 153.054 186.682 153.054Z" fill="white"/>
</g>
</g>
<defs>
<filter id="filter0_f_1_2993" x="12.2151" y="3.09375" width="285.81" height="175.397" filterUnits="userSpaceOnUse" color-interpolation-filters="sRGB">
<feFlood flood-opacity="0" result="BackgroundImageFix"/>
<feBlend mode="normal" in="SourceGraphic" in2="BackgroundImageFix" result="shape"/>
<feGaussianBlur stdDeviation="0.257812" result="effect1_foregroundBlur_1_2993"/>
</filter>
<filter id="filter1_f_1_2993" x="-85.8877" y="66.7744" width="333.759" height="156.678" filterUnits="userSpaceOnUse" color-interpolation-filters="sRGB">
<feFlood flood-opacity="0" result="BackgroundImageFix"/>
<feBlend mode="normal" in="SourceGraphic" in2="BackgroundImageFix" result="shape"/>
<feGaussianBlur stdDeviation="0.257812" result="effect1_foregroundBlur_1_2993"/>
</filter>
<filter id="filter2_f_1_2993" x="-80.5349" y="93.4469" width="327.698" height="192.172" filterUnits="userSpaceOnUse" color-interpolation-filters="sRGB">
<feFlood flood-opacity="0" result="BackgroundImageFix"/>
<feBlend mode="normal" in="SourceGraphic" in2="BackgroundImageFix" result="shape"/>
<feGaussianBlur stdDeviation="0.257812" result="effect1_foregroundBlur_1_2993"/>
</filter>
<filter id="filter3_f_1_2993" x="-2.3905" y="83.0153" width="300.141" height="166.095" filterUnits="userSpaceOnUse" color-interpolation-filters="sRGB">
<feFlood flood-opacity="0" result="BackgroundImageFix"/>
<feBlend mode="normal" in="SourceGraphic" in2="BackgroundImageFix" result="shape"/>
<feGaussianBlur stdDeviation="0.257812" result="effect1_foregroundBlur_1_2993"/>
</filter>
<filter id="filter4_f_1_2993" x="-19.08" y="158.564" width="307.223" height="128.391" filterUnits="userSpaceOnUse" color-interpolation-filters="sRGB">
<feFlood flood-opacity="0" result="BackgroundImageFix"/>
<feBlend mode="normal" in="SourceGraphic" in2="BackgroundImageFix" result="shape"/>
<feGaussianBlur stdDeviation="0.257812" result="effect1_foregroundBlur_1_2993"/>
</filter>
<filter id="filter5_d_1_2993" x="36.5754" y="74.149" width="194.05" height="124.529" filterUnits="userSpaceOnUse" color-interpolation-filters="sRGB">
<feFlood flood-opacity="0" result="BackgroundImageFix"/>
<feColorMatrix in="SourceAlpha" type="matrix" values="0 0 0 0 0 0 0 0 0 0 0 0 0 0 0 0 0 0 127 0" result="hardAlpha"/>
<feOffset dx="2.81328" dy="8.43985"/>
<feGaussianBlur stdDeviation="0.194231"/>
<feComposite in2="hardAlpha" operator="out"/>
<feColorMatrix type="matrix" values="0 0 0 0 0 0 0 0 0 0 0 0 0 0 0 0 0 0 1 0"/>
<feBlend mode="normal" in2="BackgroundImageFix" result="effect1_dropShadow_1_2993"/>
<feBlend mode="normal" in="SourceGraphic" in2="effect1_dropShadow_1_2993" result="shape"/>
</filter>
<linearGradient id="paint0_linear_1_2993" x1="32.4844" y1="4.25391" x2="237.316" y2="255.363" gradientUnits="userSpaceOnUse">
<stop stop-color="#1533CE"/>
<stop offset="1" stop-color="#8546D7"/>
</linearGradient>
<linearGradient id="paint1_linear_1_2993" x1="139.492" y1="56.0672" x2="140.727" y2="223.093" gradientUnits="userSpaceOnUse">
<stop stop-color="#FF07E0"/>
<stop offset="0.505208" stop-color="#D75B6C"/>
<stop offset="0.932292" stop-color="#D6515D"/>
</linearGradient>
<linearGradient id="paint2_linear_1_2993" x1="143.453" y1="140.071" x2="65.1998" y2="234.194" gradientUnits="userSpaceOnUse">
<stop stop-color="#FF6CDB"/>
<stop offset="0.505208" stop-color="#FF7D61"/>
<stop offset="0.932292" stop-color="#F35628"/>
</linearGradient>
<linearGradient id="paint3_linear_1_2993" x1="171.316" y1="109.312" x2="173.774" y2="225.469" gradientUnits="userSpaceOnUse">
<stop stop-color="#FF81E0"/>
<stop offset="0.505208" stop-color="#FF5F75"/>
<stop offset="0.932292" stop-color="#FF8B69"/>
</linearGradient>
<linearGradient id="paint4_linear_1_2993" x1="136.899" y1="188.074" x2="150.176" y2="271.863" gradientUnits="userSpaceOnUse">
<stop stop-color="#FDFF9A"/>
<stop offset="0.505208" stop-color="#FFCA10"/>
<stop offset="1" stop-color="#FFA000"/>
</linearGradient>
<clipPath id="clip0_1_2993">
<rect width="264" height="264" rx="40.2188" fill="white"/>
</clipPath>
</defs>
</svg>
